<svg width="27" height="22" viewBox="0 0 27 22" fill="none" xmlns="http://www.w3.org/2000/svg">
<path d="M13.0968 21.1852H0.903226V0.814815H13.0968V21.1852ZM12.7097 0H1.74194C0.524516 0 0 0.927037 0 2.03704V19.5556C0 20.086 0.0402573 20.8101 0.451627 21.1852C0.862998 21.5603 1.16017 22 1.74194 22H12.7097C13.2914 22 13.137 21.9677 13.5484 21.5926C13.9598 21.2175 14 20.4934 14 19.963V2.03704C14 0.927037 13.9161 0 12.7097 0Z" fill="#B3C1C8"/>
<path d="M20 3V5.06C22.89 5.92 25 8.6 25 11.77C25 14.94 22.89 17.61 20 18.47V20.54C24 19.63 27 16.05 27 11.77C27 7.49 24 3.91 20 3ZM22.5 11.77C22.5 10 21.5 8.48 20 7.74V15.77C21.5 15.06 22.5 13.53 22.5 11.77ZM9 8.77V14.77H13L18 19.77V3.77L13 8.77H9Z" fill="#F4EFEF"/>
</svg>
