<svg width="41" height="41" viewBox="0 0 41 41" fill="none" xmlns="http://www.w3.org/2000/svg">
<path d="M20.5 3.41666C18.2566 3.41666 16.0351 3.85853 13.9625 4.71705C11.8899 5.57557 10.0066 6.83391 8.42026 8.42025C5.21652 11.624 3.41667 15.9692 3.41667 20.5C3.41667 25.0308 5.21652 29.376 8.42026 32.5797C10.0066 34.1661 11.8899 35.4244 13.9625 36.2829C16.0351 37.1415 18.2566 37.5833 20.5 37.5833C25.0308 37.5833 29.376 35.7835 32.5797 32.5797C35.7835 29.376 37.5833 25.0308 37.5833 20.5C37.5833 18.2566 37.1415 16.0351 36.2829 13.9625C35.4244 11.8898 34.1661 10.0066 32.5797 8.42025C30.9934 6.83391 29.1102 5.57557 27.0375 4.71705C24.9649 3.85853 22.7434 3.41666 20.5 3.41666V3.41666ZM11.9583 16.2292C11.9583 14.8625 13.1542 13.6667 14.5208 13.6667C15.8875 13.6667 17.0833 14.8625 17.0833 16.2292C17.0833 17.5958 15.8875 18.7917 14.5208 18.7917C13.1542 18.7917 11.9583 17.5958 11.9583 16.2292ZM20.5 29.4346C17.5104 29.4346 14.8796 28.1875 13.3421 26.3425L15.7679 23.9167C16.5367 25.1467 18.3646 26.0179 20.5 26.0179C22.6354 26.0179 24.4633 25.1467 25.2321 23.9167L27.6579 26.3425C26.1204 28.1875 23.4896 29.4346 20.5 29.4346ZM26.4792 18.7917C25.1125 18.7917 23.9167 17.5958 23.9167 16.2292C23.9167 14.8625 25.1125 13.6667 26.4792 13.6667C27.8458 13.6667 29.0417 14.8625 29.0417 16.2292C29.0417 17.5958 27.8458 18.7917 26.4792 18.7917Z" fill="white"/>
</svg>
