<?xml version="1.0" encoding="UTF-8"?>
<svg width="85px" height="59px" viewBox="0 0 85 59" version="1.1" xmlns="http://www.w3.org/2000/svg" xmlns:xlink="http://www.w3.org/1999/xlink" style="/*! background: aqua; */">
    <!-- Generator: Sketch 48.2 (47327) - http://www.bohemiancoding.com/sketch -->
    <title>Group 81</title>
    <desc>Created with Sketch.</desc>
    <defs/>
    <g id="ecotelecom_main_menu" stroke="none" stroke-width="1" fill="none" fill-rule="evenodd" transform="translate(-139.000000, -5147.000000)" opacity="0.600000024">
        <g id="Group-2" transform="translate(-1.000000, 4879.000000)" fill="#FFFFFF" fill-rule="nonzero">
            <g id="Ресурс-1" transform="translate(140.000000, 268.000000)">
                <g id="Group-81">
                    <path d="M63.4806931,0.109405941 C63.3320527,-0.00569201231 63.1243829,-0.00569201231 62.9757426,0.109405941 C57.3287129,3.95544554 43.0891089,1.34267597e-15 32.8891089,10.0990099 C29.4133663,13.5663366 28.209901,16.9242574 28.209901,19.8445545 C28.209901,25.4663366 32.6029703,29.3712871 32.8722772,29.6826733 L32.9564356,29.7752475 L30.0529703,32.1316832 L30.759901,32.8386139 L31.4836634,33.5623762 L33.840099,30.6589109 L33.8905941,30.7094059 C34.210396,31.0123762 38.0985149,35.380198 43.720297,35.3886139 C46.6405941,35.3886139 49.9985149,34.1851485 53.4658416,30.7094059 C63.6237624,20.5178218 60.1227723,6.78316832 63.5648515,0.580693069 C63.6528581,0.41528215 63.6182902,0.211331422 63.4806931,0.0841584158 M60.8633663,8.87871287 L59.180198,8.28118812 C58.279703,7.96138614 57.3455446,7.62475248 56.3861386,7.27128713 L54.7029703,8.95445545 L53.2554455,10.4019802 L51.799505,11.8579208 L50.1163366,13.5410891 L52.8009901,14.5341584 L55.3257426,15.4346535 L57.7579208,16.2762376 L59.7524752,16.9158416 C59.2502674,19.4928436 58.4009461,21.9898484 57.2277228,24.3386139 L55.7044554,23.8925743 L53.4826733,23.2193069 L51.1935644,22.4955446 C50.4136964,22.2486799 49.6226073,21.9877888 48.820297,21.7128713 C48.0179868,21.4379538 47.1960396,21.1574257 46.3544554,20.8712871 C45.5128713,20.5683168 44.6572607,20.2513201 43.7876238,19.920297 L42.1044554,21.6034653 L40.6148515,23.0930693 L39.1252475,24.5826733 L37.2821782,26.3415842 C38.1237624,26.669802 39.0242574,26.9811881 39.8658416,27.2757426 C40.7074257,27.570297 41.5490099,27.8480198 42.3905941,28.1173267 C43.2321782,28.3866337 44.0232673,28.6306931 44.8143564,28.8747525 L47.1623762,29.5564356 L49.459901,30.1876238 L51.7069307,30.7767327 L52.1529703,30.8861386 C49.0811881,33.6717822 46.2618812,34.5891089 43.7371287,34.5975248 C38.5361386,34.5975248 34.8247525,30.4990099 34.479703,30.1539604 L33.9747525,29.6658416 L34.0420792,29.5985149 L35.5485149,28.0920792 L37.2821782,26.3415842 C37.0184818,25.4663366 36.7716172,24.6051155 36.5415842,23.7579208 C36.3059406,22.9163366 36.0871287,22.0747525 35.8767327,21.2331683 C35.6663366,20.3915842 35.4643564,19.6089109 35.2792079,18.8094059 C35.0940594,18.009901 34.9089109,17.2272277 34.7321782,16.4613861 C34.5554455,15.6955446 34.3955446,14.929703 34.2356436,14.1722772 C34.0757426,13.4148515 33.9242574,12.6742574 33.7727723,11.9336634 C33.6886139,11.5044554 33.6044554,11.0920792 33.520297,10.6460396 C35.4220344,8.74070885 37.6550399,7.19785322 40.109901,6.09306931 C40.2024752,6.4970297 40.2950495,6.93465347 40.3876238,7.32178218 C40.5671617,8.08481848 40.7523102,8.85907591 40.9430693,9.64455446 C41.1338284,10.430033 41.3330033,11.2323432 41.5405941,12.0514851 C41.7481848,12.8650165 41.9669967,13.7066007 42.1970297,14.5762376 C42.4242574,15.4178218 42.659901,16.2594059 42.9207921,17.1851485 C43.1816832,18.1108911 43.4425743,18.9777228 43.7623762,19.9034653 L45.4455446,18.220297 L46.9183168,16.7475248 L48.3826733,15.2831683 L50.0658416,13.6 C49.7712871,12.6237624 49.4851485,11.6811881 49.2242574,10.7638614 C48.9633663,9.84653465 48.7024752,8.9460396 48.4668317,8.07079208 C48.2311881,7.19554455 48.0039604,6.34554455 47.7767327,5.5460396 C47.6420792,5.04108911 47.5158416,4.54455446 47.389604,4.0480198 C50.0742574,3.55990099 52.7084158,3.33267327 55.1237624,3.06336634 C55.2415842,3.50940594 55.3678218,3.95544554 55.4940594,4.40990099 C55.7633663,5.36369637 56.0438944,6.34834983 56.3356436,7.36386139 L58.0188119,5.68069307 L59.449505,4.24158416 L60.880198,2.81089109 L62.1930693,1.4980198 L62.3108911,1.44752475 C61.5145086,3.88299369 61.0198907,6.40695794 60.8381188,8.96287129" id="Shape"/>
                    <path d="M1.46435644,56.3861386 C1.51485149,56.3019802 1.54851485,56.2178218 1.68316832,56.2178218 C1.8369802,56.252235 1.98090258,56.3213178 2.1039604,56.419802 C2.52852416,56.6853399 3.01715403,56.8307655 3.51782178,56.8405941 C4.31631854,56.8754301 5.03969165,56.3725135 5.28514851,55.6118812 C5.5164967,54.9687537 5.64156596,54.2922427 5.65544554,53.6089109 L5.65544554,53.3564356 L3.46732673,53.3564356 C3.31584158,53.3564356 3.13069307,53.4069307 3.13069307,53.0029703 L3.13069307,51.8668317 C3.13069307,51.7321782 3.13069307,51.4965347 3.48415842,51.4965347 L5.6470297,51.4965347 L5.6470297,51.2440594 C5.68878185,50.4110487 5.45189291,49.5878596 4.97376238,48.9044554 C4.64561533,48.5379014 4.16901278,48.3398329 3.67772277,48.3658416 C3.12619738,48.3784152 2.59873619,48.5941947 2.19653465,48.9717822 C2.09922154,49.0665538 1.97638721,49.1308955 1.84306931,49.1569307 C1.74207921,49.1569307 1.70841584,49.0727723 1.65792079,48.9886139 L1.04356436,48.0460396 C0.996133523,47.9821136 0.967036581,47.9064615 0.959405941,47.8272277 C0.959405941,47.7767327 1.04356436,47.6084158 1.2960396,47.389604 C2.01965728,46.8343038 2.90871782,46.5379503 3.82079208,46.5480198 C5.6049505,46.5480198 8.02871287,47.5747525 8.02871287,52.7084158 C8.02871287,55.0311881 7.50693069,58.6415842 3.61881188,58.6415842 C2.69251805,58.6611534 1.7842454,58.3839533 1.02673267,57.850495 C0.959405941,57.8 0.824752475,57.6821782 0.824752475,57.5643564 C0.833358873,57.4722188 0.868431569,57.384537 0.925742574,57.3118812 L1.46435644,56.3861386 Z" id="Shape"/>
                    <path d="M21.2836634,58.65 C17.1767327,58.65 17.0757426,53.8193069 17.0757426,52.6158416 C17.0757426,51.4123762 17.159901,46.5564356 21.2836634,46.5564356 C25.4074257,46.5564356 25.4915842,51.3787129 25.4915842,52.6158416 C25.4915842,53.8529703 25.4074257,58.65 21.2836634,58.65 M23.0846535,52.6158416 C23.0846535,50.9831683 22.899505,48.4079208 21.2836634,48.4079208 C19.6678218,48.4079208 19.4826733,51.0168317 19.4826733,52.6158416 C19.4826733,53.9960396 19.5836634,56.8237624 21.2836634,56.8237624 C22.9836634,56.8237624 23.0846535,53.9792079 23.0846535,52.6158416" id="Shape"/>
                    <path d="M32.7207921,46.8341584 L25.9881188,46.8341584 C25.7356436,46.8341584 25.7356436,47.0193069 25.7356436,47.0866337 L25.7356436,48.6014851 C25.7356436,48.6688119 25.7356436,48.8539604 25.9881188,48.8539604 L28.1930693,48.8539604 L28.1930693,58.0272277 C28.1930693,58.1787129 28.1930693,58.3638614 28.529703,58.3638614 L30.1455446,58.3638614 C30.2970297,58.3638614 30.4821782,58.3638614 30.4821782,58.0272277 L30.4821782,48.8539604 L32.7292079,48.8539604 C32.9816832,48.8539604 32.9816832,48.6688119 32.9816832,48.6014851 L32.9816832,47.1287129 C32.9816832,47.0613861 32.9816832,46.8762376 32.7292079,46.8762376" id="Shape"/>
                    <path d="M39.8742574,48.6519802 C40.0257426,48.6519802 40.2108911,48.6519802 40.2108911,48.3153465 L40.2108911,47.1707921 C40.2108911,46.8678218 40.0257426,46.8341584 39.8742574,46.8341584 L34.4207921,46.8341584 C34.2693069,46.8341584 34.0841584,46.8341584 34.0841584,47.1707921 L34.0841584,58.0272277 C34.0841584,58.1787129 34.0841584,58.3638614 34.4207921,58.3638614 L39.8742574,58.3638614 C40.0257426,58.3638614 40.2108911,58.3638614 40.2108911,58.0272277 L40.2108911,56.8826733 C40.2108911,56.579703 40.0257426,56.5460396 39.8742574,56.5460396 L36.3732673,56.5460396 L36.3732673,53.2638614 L38.620297,53.2638614 C38.7717822,53.2638614 38.9569307,53.2638614 38.9569307,52.9272277 L38.9569307,51.7826733 C38.9569307,51.6311881 38.9569307,51.4460396 38.620297,51.4460396 L36.3732673,51.4460396 L36.3732673,48.6519802 L39.8742574,48.6519802 Z" id="Shape"/>
                    <path d="M55.8475248,48.6519802 C55.9990099,48.6519802 56.1841584,48.6519802 56.1841584,48.3153465 L56.1841584,47.1707921 C56.1841584,46.8678218 55.9990099,46.8341584 55.8475248,46.8341584 L50.4024752,46.8341584 C50.2509901,46.8341584 50.0658416,46.8341584 50.0658416,47.1707921 L50.0658416,58.0272277 C50.0658416,58.1787129 50.0658416,58.3638614 50.4024752,58.3638614 L55.8475248,58.3638614 C55.9990099,58.3638614 56.1841584,58.3638614 56.1841584,58.0272277 L56.1841584,56.8826733 C56.1841584,56.579703 55.9990099,56.5460396 55.8475248,56.5460396 L52.3549505,56.5460396 L52.3549505,53.2638614 L54.6019802,53.2638614 C54.7534653,53.2638614 54.9386139,53.2638614 54.9386139,52.9272277 L54.9386139,51.7826733 C54.9386139,51.6311881 54.9386139,51.4460396 54.6019802,51.4460396 L52.3549505,51.4460396 L52.3549505,48.6519802 L55.8475248,48.6519802 Z" id="Shape"/>
                    <path d="M69.4643564,58.65 C65.3658416,58.65 65.2564356,53.8193069 65.2564356,52.6158416 C65.2564356,51.4123762 65.3405941,46.5564356 69.4643564,46.5564356 C73.5881188,46.5564356 73.6722772,51.3787129 73.6722772,52.6158416 C73.6722772,53.8529703 73.5881188,58.65 69.4643564,58.65 M71.2653465,52.6158416 C71.2653465,50.9831683 71.080198,48.4079208 69.4643564,48.4079208 C67.8485149,48.4079208 67.6633663,51.0168317 67.6633663,52.6158416 C67.6633663,53.9960396 67.7643564,56.8237624 69.4643564,56.8237624 C71.1643564,56.8237624 71.2653465,53.9792079 71.2653465,52.6158416" id="Shape"/>
                    <path d="M77.5772277,52.2539604 C77.3355742,51.3838119 77.1389436,50.5017831 76.9881188,49.6113861 L76.9376238,49.6113861 C76.9376238,51.9173267 76.9376238,52.540099 76.9376238,53.0450495 L76.7861386,58.010396 C76.7861386,58.2292079 76.7861386,58.3638614 76.5168317,58.3638614 L75.0945545,58.3638614 C74.9262376,58.3638614 74.8084158,58.2965347 74.8252475,58.010396 L75.2965347,47.1960396 C75.2965347,46.909901 75.3806931,46.8425743 75.5658416,46.8425743 L77.3415842,46.8425743 C77.4930693,46.8425743 77.5435644,46.8425743 77.6277228,47.1118812 L78.9910891,51.319802 C79.1932426,51.9841556 79.3617733,52.6582786 79.4960396,53.339604 C79.598744,52.6481606 79.7794336,51.9705746 80.0346535,51.319802 L81.4653465,47.1118812 C81.5158416,46.960396 81.549505,46.8425743 81.7683168,46.8425743 L83.4514851,46.8425743 C83.6871287,46.8425743 83.7881188,46.8425743 83.8049505,47.3811881 L84.2762376,58.010396 C84.2762376,58.3133663 84.1584158,58.3638614 84.0237624,58.3638614 L82.3405941,58.3638614 C82.1386139,58.3638614 82.0881188,58.2460396 82.0881188,58.010396 L81.9534653,52.3128713 C81.9534653,51.9425743 81.9534653,51.8247525 81.9534653,51.3534653 L81.9534653,49.6534653 L81.9029703,49.6534653 C81.7619579,50.5457576 81.5652032,51.4283431 81.3138614,52.2960396 L80.3376238,55.5445545 C80.2871287,55.6960396 80.2871287,55.8306931 80.0514851,55.8306931 L78.8564356,55.8306931 C78.5871287,55.8306931 78.6039604,55.6960396 78.5534653,55.5445545 L77.5772277,52.2539604 Z" id="Shape"/>
                    <path d="M16.5876238,57.8589109 C16.5455446,57.640099 15.7460396,54.4925743 15.6366337,54.0717822 C15.4938608,53.2735108 14.9149325,52.6230295 14.1386139,52.3886139 L14.1386139,52.3381188 C14.8388187,52.1287191 15.3479565,51.5237048 15.4346535,50.7980198 C15.6029703,50.0742574 16.1247525,47.9450495 16.2762376,47.1623762 C16.2762376,46.9940594 16.2762376,46.8678218 15.9732673,46.8678218 L14.2059406,46.8678218 C14.1234672,46.8624628 14.0504994,46.9208371 14.0376238,47.0024752 C14.0376238,47.0866337 13.7683168,49.2242574 13.5915842,50.2341584 C13.4148515,51.2440594 12.9688119,51.4965347 12.1608911,51.4965347 L11.5886139,51.4965347 L11.5886139,47.2044554 C11.5886139,46.8846535 11.420297,46.8678218 11.2519802,46.8678218 L9.64455446,46.8678218 C9.47623762,46.8678218 9.30792079,46.8678218 9.30792079,47.2044554 L9.30792079,58.0608911 C9.30792079,58.3806931 9.47623762,58.3975248 9.64455446,58.3975248 L11.260396,58.3975248 C11.4287129,58.3975248 11.5970297,58.3975248 11.5970297,58.0608911 L11.5970297,53.2806931 L12.3207921,53.2806931 C12.6439988,53.2423929 12.9682263,53.3435048 13.2123683,53.5587352 C13.4565103,53.7739656 13.5974751,54.0829576 13.6,54.4084158 C13.6673267,54.8628713 14.1386139,57.850495 14.1806931,58.0019802 C14.2227723,58.1534653 14.3658416,58.3722772 14.6183168,58.3722772 L16.2425743,58.3722772 C16.3620846,58.3642851 16.4715365,58.3025695 16.5402242,58.2044441 C16.608912,58.1063187 16.6294364,57.9823539 16.5960396,57.8673267" id="Shape"/>
                    <path d="M64.8019802,57.8589109 C64.759901,57.640099 63.960396,54.4925743 63.8509901,54.0717822 C63.7082172,53.2735108 63.1292889,52.6230295 62.3529703,52.3886139 L62.3529703,52.3381188 C63.0511458,52.1278384 63.557328,51.5224049 63.6405941,50.7980198 C63.8173267,50.0742574 64.3306931,47.9450495 64.4821782,47.1623762 C64.4821782,46.9940594 64.4821782,46.8678218 64.1792079,46.8678218 L62.4287129,46.8678218 C62.3474561,46.8661831 62.2766342,46.9228406 62.260396,47.0024752 C62.260396,47.0866337 61.9910891,49.2242574 61.8143564,50.2341584 C61.6376238,51.2440594 61.1915842,51.4965347 60.3836634,51.4965347 L59.8113861,51.4965347 L59.8113861,47.2044554 C59.8113861,46.8846535 59.6430693,46.8678218 59.4747525,46.8678218 L57.8673267,46.8678218 C57.6990099,46.8678218 57.5306931,46.8677871 57.5306931,47.2044554 L57.5306931,58.0608911 C57.5306931,58.3806931 57.6990099,58.3975248 57.8673267,58.3975248 L59.4747525,58.3975248 C59.6430693,58.3975248 59.8113861,58.3975248 59.8113861,58.0608911 L59.8113861,53.2806931 L60.5351485,53.2806931 C60.8583552,53.2423929 61.1825827,53.3435048 61.4267247,53.5587352 C61.6708667,53.7739656 61.8118315,54.0829576 61.8143564,54.4084158 C61.8816832,54.8628713 62.3529703,57.850495 62.3950495,58.0019802 C62.4371287,58.1534653 62.5886139,58.3722772 62.8326733,58.3722772 L64.4485149,58.3722772 C64.5695343,58.3667299 64.681338,58.3060298 64.7519082,58.2075598 C64.8224783,58.1090898 64.8440317,57.9837103 64.810396,57.8673267" id="Shape"/>
                    <path d="M48.2143564,46.8341584 L44.6039604,46.8341584 C44.3436889,46.7957867 44.0788855,46.8631664 43.8686074,47.0212702 C43.6583294,47.1793739 43.5200661,47.415052 43.4846535,47.6757426 C43.3247525,48.3153465 41.0945545,57.6064356 41.0440594,57.8420792 C41.0071505,57.9572765 41.0262101,58.0831044 41.0955794,58.1822034 C41.1649486,58.2813023 41.2766524,58.3422793 41.3975248,58.3470297 L43.0217822,58.3470297 C43.2742574,58.3470297 43.3920792,58.2544554 43.4594059,57.9767327 C43.4594059,57.8420792 45.2267327,48.8371287 45.2267327,48.8371287 L46.2113861,48.8371287 L46.2113861,58.0272277 C46.2113861,58.1618812 46.2113861,58.3638614 46.5648515,58.3638614 L48.1638614,58.3638614 C48.3321782,58.3638614 48.500495,58.3638614 48.500495,58.0272277 L48.500495,47.1707921 C48.500495,46.8846535 48.3658416,46.8425743 48.2143564,46.8341584" id="Shape"/>
                </g>
            </g>
        </g>
    </g>
</svg>