<svg width="21" height="20" viewBox="0 0 21 20" fill="none" xmlns="http://www.w3.org/2000/svg">
<path d="M15.2875 12C15.3675 11.34 15.4275 10.68 15.4275 10C15.4275 9.32 15.3675 8.66 15.2875 8H18.6675C18.8275 8.64 18.9275 9.31 18.9275 10C18.9275 10.69 18.8275 11.36 18.6675 12H15.2875ZM13.5175 17.56C14.1175 16.45 14.5775 15.25 14.8975 14H17.8475C16.8875 15.65 15.3575 16.93 13.5175 17.56ZM13.2675 12H8.58749C8.48749 11.34 8.42749 10.68 8.42749 10C8.42749 9.32 8.48749 8.65 8.58749 8H13.2675C13.3575 8.65 13.4275 9.32 13.4275 10C13.4275 10.68 13.3575 11.34 13.2675 12ZM10.9275 17.96C10.0975 16.76 9.42749 15.43 9.01749 14H12.8375C12.4275 15.43 11.7575 16.76 10.9275 17.96ZM6.92749 6H4.00749C4.95749 4.34 6.49749 3.06 8.32749 2.44C7.72749 3.55 7.27749 4.75 6.92749 6ZM4.00749 14H6.92749C7.27749 15.25 7.72749 16.45 8.32749 17.56C6.49749 16.93 4.95749 15.65 4.00749 14ZM3.18749 12C3.02749 11.36 2.92749 10.69 2.92749 10C2.92749 9.31 3.02749 8.64 3.18749 8H6.56749C6.48749 8.66 6.42749 9.32 6.42749 10C6.42749 10.68 6.48749 11.34 6.56749 12H3.18749ZM10.9275 2.03C11.7575 3.23 12.4275 4.57 12.8375 6H9.01749C9.42749 4.57 10.0975 3.23 10.9275 2.03ZM17.8475 6H14.8975C14.5775 4.75 14.1175 3.55 13.5175 2.44C15.3575 3.07 16.8875 4.34 17.8475 6ZM10.9275 0C5.39749 0 0.92749 4.5 0.92749 10C0.92749 12.6522 1.98106 15.1957 3.85642 17.0711C4.78501 17.9997 5.8874 18.7362 7.10066 19.2388C8.31391 19.7413 9.61427 20 10.9275 20C13.5797 20 16.1232 18.9464 17.9986 17.0711C19.8739 15.1957 20.9275 12.6522 20.9275 10C20.9275 8.68678 20.6688 7.38642 20.1663 6.17317C19.6637 4.95991 18.9271 3.85752 17.9986 2.92893C17.07 2.00035 15.9676 1.26375 14.7543 0.761205C13.5411 0.258658 12.2407 0 10.9275 0Z" fill="#023047"/>
</svg>
