<?xml version="1.0" encoding="UTF-8"?>
<svg width="27px" height="27px" viewBox="0 0 27 27" version="1.1" xmlns="http://www.w3.org/2000/svg" xmlns:xlink="http://www.w3.org/1999/xlink">
    <!-- Generator: Sketch 48.2 (47327) - http://www.bohemiancoding.com/sketch -->
    <title>Group 81</title>
    <desc>Created with Sketch.</desc>
    <defs/>
    <g id="ecotelecom_main_mobile" stroke="none" stroke-width="1" fill="none" fill-rule="evenodd" transform="translate(-35.000000, -9.000000)">
        <g id="Group-36" transform="translate(0.000000, -1.000000)" fill-rule="nonzero">
            <g id="Group-81" transform="translate(35.000000, 10.000000)">
                <polyline id="Shape" fill="#7CC623" points="4.59642857 21.7992857 4.38428571 21.5871429 1.09928571 24.255 1.63928571 24.795"/>
                <polyline id="Shape" fill="#2B771B" points="1.63928571 24.795 2.19214286 25.3478571 4.86 22.0628571 4.59642857 21.7992857"/>
                <path d="M3.48428571,22.1785714 C3.12428571,21.7735714 -4.15928571,15.2935714 3.48428571,7.65 C11.1278571,0.00642857143 21.8571429,3.06 26.4214286,0 C23.7471429,4.96928571 26.4214286,15.2935714 18.7778571,22.9435714 C11.1342857,30.5935714 4.635,23.3164286 4.24928571,22.9435714 C4.03714286,22.7378571 3.72214286,22.4421429 3.48428571,22.1785714" id="Shape" fill="#7CC623"/>
                <path d="M25.875,0.321428571 C24.3964286,1.09285714 22.4164286,1.395 20.1728571,1.63928571 C20.2885714,2.07642857 20.4171429,2.52 20.5457143,2.97642857 C20.7514286,3.705 20.9657143,4.45714286 21.1885714,5.23285714 L22.4742857,3.94714286 L23.5671429,2.84785714 L24.66,1.755 L25.9457143,0.469285714 L26.4214286,0 C26.2454653,0.115372604 26.0630221,0.220545717 25.875,0.315" id="Shape" fill="#2B771B"/>
                <path d="M21.2142857,5.23285714 L19.9285714,6.51857143 L18.8228571,7.63071429 L17.7107143,8.74285714 L16.425,10.0285714 L18.4757143,10.7871429 L20.4042857,11.4814286 L22.2621429,12.1242857 L24.0364286,12.7092857 C24.4334315,10.6790336 24.7273792,8.6299817 24.9171429,6.57 L23.3035714,6.00428571 C22.6264286,5.76428571 21.93,5.50714286 21.2142857,5.23285714" id="Shape" fill="#2B771B"/>
                <path d="M9.41142857,7.07142857 C9.55714286,7.67142857 9.70928571,8.28428571 9.86785714,8.91 C10.0264286,9.53571429 10.1935714,10.1785714 10.3692857,10.8385714 C10.5428571,11.4814286 10.7228571,12.1242857 10.9221429,12.8314286 C11.1214286,13.5385714 11.3207143,14.2007143 11.565,14.9078571 L12.8507143,13.6221429 L13.9757143,12.4971429 L15.0942857,11.3785714 L16.38,10.0928571 C16.1485714,9.34714286 15.9364286,8.62714286 15.7371429,7.92642857 C15.5378571,7.22571429 15.3385714,6.53785714 15.1585714,5.86928571 C14.9785714,5.20071429 14.7857143,4.5 14.6442857,3.85714286 C14.5157143,3.36214286 14.3871429,2.88 14.2714286,2.40428571 C12.3547733,2.73024125 10.485179,3.28939244 8.70428571,4.06928571 C8.80071429,4.48071429 8.89071429,4.89214286 8.98714286,5.31642857 C9.12,5.89928571 9.26142857,6.49071429 9.41142857,7.09071429" id="Shape" fill="#2B771B"/>
                <path d="M18.945,17.4278571 L17.1964286,16.875 L15.3835714,16.2771429 C14.7664286,16.0671429 14.1385714,15.8528571 13.5,15.6342857 C12.8571429,15.4028571 12.2142857,15.165 11.5328571,14.9078571 L10.2471429,16.1935714 L9.08357143,17.3571429 L7.94571429,18.495 L6.62142857,19.8128571 C7.26428571,20.0635714 7.95214286,20.3014286 8.595,20.5264286 C9.23785714,20.7514286 9.88071429,20.9635714 10.5235714,21.1692857 C11.1664286,21.375 11.7642857,21.5614286 12.375,21.7478571 L14.1685714,22.2685714 L15.9235714,22.7507143 L17.64,23.2007143 L18.3471429,23.3807143 L18.7907143,22.95 C20.1344539,21.6097801 21.2602123,20.0675562 22.1271429,18.3792857 L20.655,17.9485714 L18.9578571,17.4342857" id="Shape" fill="#2B771B"/>
                <path d="M5.28428571,21.1435714 L6.615,19.8128571 C6.41571429,19.17 6.22285714,18.4821429 6.04928571,17.8392857 C5.87571429,17.1964286 5.70214286,16.5535714 5.54142857,15.9107143 C5.38071429,15.2678571 5.22642857,14.67 5.085,14.0592857 C4.94357143,13.4485714 4.80214286,12.8571429 4.66714286,12.2657143 C4.53214286,11.6742857 4.41,11.0957143 4.28785714,10.5171429 C4.16571429,9.93857143 4.05,9.37285714 3.93428571,8.80714286 C3.84428571,8.35714286 3.75428571,7.91357143 3.67071429,7.46357143 L3.49071429,7.63714286 C-4.15285714,15.2871429 3.13071429,21.78 3.49071429,22.1657143 C3.6,22.2942857 3.735,22.4292857 3.86357143,22.5514286 L4.14,22.275 L5.29071429,21.1242857" id="Shape" fill="#2B771B"/>
            </g>
        </g>
    </g>
</svg>