<svg width="53" height="26" viewBox="0 0 53 26" fill="none" xmlns="http://www.w3.org/2000/svg">
<g clip-path="url(#clip0_240:103)">
<path fill-rule="evenodd" clip-rule="evenodd" d="M45.1935 2.51435C45.1701 2.49799 45.1459 2.48368 45.1208 2.47153L40.2473 0.0626711C40.1101 -0.00520011 39.9523 -0.00816093 39.8129 0.054358L26.4807 6.0345L13.1485 0.054358C13.0091 -0.00819889 12.8513 -0.00516215 12.714 0.0626331L7.8374 2.47305L7.8375 2.47328C7.8136 2.48512 7.79027 2.49863 7.76791 2.51435C7.61782 2.61976 7.52754 2.79817 7.52754 2.98933V25.3853C7.52754 25.6998 7.76748 25.9547 8.06344 25.9547H44.8979C45.1939 25.9547 45.4338 25.6998 45.4338 25.3853V2.98933C45.4338 2.79817 45.3435 2.61976 45.1935 2.51435ZM40.5572 1.47176L43.5809 2.96633L40.5572 4.33427V1.47176ZM27.0169 7.03006L39.4854 1.43733V4.81916L27.0169 10.4601V7.03006ZM13.476 1.43733L25.9451 7.03033V10.4603L13.476 4.8192V1.43733ZM12.4042 1.47176V4.33431L9.38049 2.96633L12.4042 1.47176ZM9.47588 24.8159L13.1434 21.3616H39.8179L43.4855 24.8159H9.47588ZM44.362 24.1197L40.5572 20.5361V17.4479H39.4854V20.2228H13.476V17.4479H12.4042V20.5361L8.59933 24.1197V3.85063L12.4042 5.57201V13.6798H13.476V6.0569L26.2705 11.8453L26.2706 11.845C26.4035 11.9054 26.5555 11.9066 26.6909 11.8453L39.4854 6.0569V13.6798H40.5572V5.57201L44.362 3.85063V24.1197Z" fill="#F7FAFB"/>
<path fill-rule="evenodd" clip-rule="evenodd" d="M5.09622 17.938H4.07433V15.1762L2.91837 17.1916H2.80344L1.64748 15.1762V17.938H0.625595V13.188H1.64748L2.86089 15.2984L4.07433 13.188H5.09622V17.938Z" fill="#F7FAFB"/>
<path fill-rule="evenodd" clip-rule="evenodd" d="M14.1647 16.893V17.938H10.8671V13.188H14.1647V14.2331H11.889V15.0203H14.1647V16.0517H11.889V16.893H14.1647Z" fill="#F7FAFB"/>
<path fill-rule="evenodd" clip-rule="evenodd" d="M23.612 15.6989C23.612 17.151 22.6604 18.0331 21.4087 18.0331C20.0037 18.0331 18.9946 16.9338 18.9946 15.5699C18.9946 14.1924 20.0228 13.0931 21.3384 13.0931C22.1943 13.0931 22.9159 13.541 23.2927 14.1788L22.4241 14.7081C22.239 14.3959 21.8366 14.1517 21.3321 14.1517C20.5785 14.1517 20.0164 14.7421 20.0164 15.5767C20.0164 16.3841 20.5529 16.9745 21.4215 16.9745C22.0154 16.9745 22.405 16.6963 22.5646 16.2417H21.3704V15.2917H23.612V15.6989Z" fill="#F7FAFB"/>
<path fill-rule="evenodd" clip-rule="evenodd" d="M28.4901 15.5631C28.4901 14.1653 29.5311 13.0931 30.8148 13.0931C32.0985 13.0931 33.1395 14.1653 33.1395 15.5631C33.1395 16.9609 32.0985 18.0331 30.8148 18.0331C29.5311 18.0331 28.4901 16.9609 28.4901 15.5631ZM32.1176 15.5631C32.1176 14.7149 31.5429 14.1517 30.8148 14.1517C30.0867 14.1517 29.512 14.7149 29.512 15.5631C29.512 16.4113 30.0867 16.9745 30.8148 16.9745C31.5429 16.9745 32.1176 16.4113 32.1176 15.5631Z" fill="#F7FAFB"/>
<path fill-rule="evenodd" clip-rule="evenodd" d="M42.5777 15.6989C42.5777 17.151 41.6261 18.0331 40.3743 18.0331C38.9693 18.0331 37.9602 16.9338 37.9602 15.5699C37.9602 14.1924 38.9884 13.0931 40.3041 13.0931C41.1599 13.0931 41.8815 13.541 42.2583 14.1788L41.3898 14.7081C41.2045 14.3959 40.8022 14.1517 40.2977 14.1517C39.5441 14.1517 38.982 14.7421 38.982 15.5767C38.982 16.3841 39.5185 16.9745 40.3871 16.9745C40.981 16.9745 41.3706 16.6963 41.5303 16.2417H40.336V15.2917H42.5777V15.6989Z" fill="#F7FAFB"/>
<path fill-rule="evenodd" clip-rule="evenodd" d="M47.6867 15.5631C47.6867 14.1653 48.7277 13.0931 50.0114 13.0931C51.2951 13.0931 52.3361 14.1653 52.3361 15.5631C52.3361 16.9609 51.2951 18.0331 50.0114 18.0331C48.7277 18.0331 47.6867 16.9609 47.6867 15.5631ZM51.3143 15.5631C51.3143 14.7149 50.7395 14.1517 50.0114 14.1517C49.2834 14.1517 48.7086 14.7149 48.7086 15.5631C48.7086 16.4113 49.2834 16.9745 50.0114 16.9745C50.7395 16.9745 51.3143 16.4113 51.3143 15.5631Z" fill="#F7FAFB"/>
</g>
<defs>
<clipPath id="clip0_240:103">
<rect width="52" height="26" fill="white" transform="translate(0.600952)"/>
</clipPath>
</defs>
</svg>
