<?xml version="1.0" encoding="UTF-8"?>
<!-- Generator: Adobe Illustrator 21.1.0, SVG Export Plug-In . SVG Version: 6.00 Build 0)  -->
<svg version="1.1" id="Layer_1" xmlns="http://www.w3.org/2000/svg" xmlns:xlink="http://www.w3.org/1999/xlink" x="0px" y="0px" viewBox="0 0 113.4 77.7" style="enable-background:new 0 0 113.4 77.7;" xml:space="preserve">
<style type="text/css">
	.st0{fill:#8BC53F;}
	.st1{fill:#387C2C;}
</style>
<title>logo</title>
<desc>Created with Sketch.</desc>
<g>
	<polyline class="st0" points="46.4,38.2 46,37.8 40.4,42.4 41.3,43.4  "/>
	<polyline class="st1" points="41.3,43.4 42.2,44.3 46.8,38.7 46.4,38.2  "/>
	<path class="st0" d="M44.5,38.9c-0.6-0.7-13.2-11.9,0-25.1C57.7,0.6,76.1,5.9,84,0.6C79.4,9.2,84,27,70.9,40.2   c-13.2,13.2-24.4,0.6-25.1,0C45.4,39.8,44.9,39.3,44.5,38.9"/>
	<path class="st1" d="M83.1,1.1c-2.6,1.3-6,1.8-9.8,2.3c0.2,0.8,0.4,1.5,0.6,2.3C74.2,7,74.6,8.3,75,9.6c0.8-0.8,1.5-1.5,2.2-2.2   c0.7-0.7,1.3-1.3,1.9-1.9c0.6-0.6,1.2-1.2,1.9-1.9c0.7-0.7,1.4-1.4,2.2-2.2c0.3-0.3,0.6-0.6,0.9-0.9C83.7,0.8,83.4,1,83.1,1.1"/>
	<path class="st1" d="M75,9.6c-0.8,0.8-1.5,1.5-2.2,2.2c-0.7,0.7-1.3,1.3-1.9,1.9c-0.6,0.6-1.2,1.2-1.9,1.9   c-0.7,0.7-1.4,1.4-2.2,2.2c1.2,0.5,2.4,0.9,3.5,1.3c1.2,0.4,2.3,0.8,3.4,1.2c1.1,0.4,2.2,0.7,3.2,1.1c1,0.4,2.1,0.7,3.1,1   c0,0,0,0,0.1,0c0.8-3.7,1.1-7.3,1.5-10.6c-0.9-0.3-1.8-0.6-2.8-1C77.5,10.5,76.3,10.1,75,9.6"/>
	<path class="st1" d="M54.7,12.8c0.3,1,0.5,2.1,0.8,3.2c0.3,1.1,0.6,2.2,0.9,3.3c0.3,1.1,0.6,2.3,0.9,3.4c0.3,1.2,0.7,2.4,1.1,3.6   c0.8-0.8,1.6-1.6,2.3-2.3c0.7-0.7,1.3-1.3,1.9-1.9c0.6-0.6,1.3-1.3,1.9-1.9c0.7-0.7,1.4-1.4,2.2-2.2c-0.4-1.3-0.8-2.5-1.1-3.7   c-0.3-1.2-0.7-2.4-1-3.6c-0.3-1.2-0.6-2.3-0.9-3.4c-0.2-0.8-0.4-1.7-0.6-2.5c-3.2,0.6-6.4,1.4-9.6,2.9C53.6,8.3,53.8,9,54,9.7   C54.2,10.7,54.4,11.8,54.7,12.8"/>
	<path class="st1" d="M71.1,30.7c-1-0.3-2-0.6-3-1c-1-0.3-2.1-0.7-3.1-1c-1.1-0.4-2.1-0.7-3.3-1.1c-1.1-0.4-2.2-0.8-3.4-1.3   c-0.8,0.8-1.6,1.6-2.3,2.3c-0.7,0.7-1.3,1.3-2,2c-0.6,0.6-1.3,1.3-2,2c-0.7,0.7-1.4,1.4-2.3,2.3c1.2,0.4,2.3,0.8,3.4,1.2   c1.1,0.4,2.2,0.8,3.3,1.1c1.1,0.4,2.1,0.7,3.2,1c1.1,0.3,2.1,0.6,3.1,0.9c1,0.3,2,0.6,3,0.8c1,0.3,2,0.5,3,0.8   c0.4,0.1,0.8,0.2,1.2,0.3c0.3-0.2,0.5-0.5,0.8-0.7c2.5-2.5,4.3-5.2,5.8-7.9c-0.8-0.2-1.7-0.5-2.5-0.7C73.1,31.3,72.1,31,71.1,30.7"/>
	<path class="st1" d="M47.6,37.1c0.7-0.7,1.4-1.4,2.3-2.3c-0.3-1.2-0.7-2.3-1-3.4c-0.3-1.1-0.6-2.2-0.9-3.3   c-0.3-1.1-0.5-2.1-0.8-3.2c-0.3-1-0.5-2.1-0.7-3.1c-0.2-1-0.4-2-0.7-3c-0.2-1-0.4-2-0.6-2.9c-0.2-0.8-0.3-1.5-0.5-2.3   c-0.1,0.1-0.2,0.2-0.3,0.3c-13.2,13.2-0.6,24.4,0,25.1c0.2,0.2,0.4,0.5,0.6,0.7c0.2-0.2,0.3-0.3,0.5-0.5   C46.2,38.4,46.9,37.8,47.6,37.1"/>
	<path d="M2.7,74.4c0.1-0.1,0.1-0.2,0.3-0.2c0.2,0,0.3,0.1,0.6,0.3C4.4,74.9,5.1,75,5.4,75c1.5,0,2.1-1,2.3-1.6   c0.3-0.6,0.5-1.8,0.5-2.6v-0.3H5.3c-0.2,0-0.4,0.1-0.4-0.5v-1.5c0-0.2,0-0.5,0.5-0.5h2.9v-0.3c0-1.2-0.3-2.4-0.9-3.1   c-0.4-0.5-1-0.7-1.7-0.7c-0.8,0-1.3,0.3-2,0.8c-0.1,0.1-0.3,0.2-0.5,0.2c-0.1,0-0.2-0.1-0.2-0.2l-0.8-1.2C2,63.3,2,63.2,2,63.1   c0-0.1,0.1-0.3,0.4-0.6c1.1-0.9,2.5-1.1,3.3-1.1c2.3,0,5.6,1.4,5.6,8.1c0,3.1-0.7,7.8-5.8,7.8c-1.3,0-2.6-0.4-3.4-1   c-0.1-0.1-0.3-0.2-0.3-0.4c0-0.2,0.1-0.2,0.1-0.3L2.7,74.4z"/>
	<path d="M28.8,77.3c-5.4,0-5.5-6.4-5.5-8c0-1.6,0.1-8,5.5-8c5.4,0,5.5,6.4,5.5,8C34.3,71,34.2,77.3,28.8,77.3 M31.2,69.4   c0-2.2-0.2-5.6-2.4-5.6c-2.1,0-2.4,3.4-2.4,5.6c0,1.8,0.1,5.6,2.4,5.6C31,75,31.2,71.2,31.2,69.4"/>
	<path d="M43.9,61.8h-8.9c-0.3,0-0.3,0.2-0.3,0.3v2c0,0.1,0,0.3,0.3,0.3h2.9v12.1c0,0.2,0,0.4,0.4,0.4h2.1c0.2,0,0.4,0,0.4-0.4V64.4   h3c0.3,0,0.3-0.2,0.3-0.3v-2C44.2,62,44.2,61.8,43.9,61.8"/>
	<path d="M53.3,64.2c0.2,0,0.4,0,0.4-0.4v-1.5c0-0.4-0.2-0.4-0.4-0.4h-7.2c-0.2,0-0.4,0-0.4,0.4v14.3c0,0.2,0,0.4,0.4,0.4h7.2   c0.2,0,0.4,0,0.4-0.4V75c0-0.4-0.2-0.4-0.4-0.4h-4.6v-4.3h3c0.2,0,0.4,0,0.4-0.4v-1.5c0-0.2,0-0.4-0.4-0.4h-3v-3.7H53.3z"/>
	<path d="M74.3,64.2c0.2,0,0.4,0,0.4-0.4v-1.5c0-0.4-0.2-0.4-0.4-0.4h-7.2c-0.2,0-0.4,0-0.4,0.4v14.3c0,0.2,0,0.4,0.4,0.4h7.2   c0.2,0,0.4,0,0.4-0.4V75c0-0.4-0.2-0.4-0.4-0.4h-4.6v-4.3h3c0.2,0,0.4,0,0.4-0.4v-1.5c0-0.2,0-0.4-0.4-0.4h-3v-3.7H74.3z"/>
	<path d="M92.3,77.3c-5.4,0-5.5-6.4-5.5-8c0-1.6,0.1-8,5.5-8c5.4,0,5.5,6.4,5.5,8C97.8,71,97.7,77.3,92.3,77.3 M94.7,69.4   c0-2.2-0.2-5.6-2.4-5.6c-2.1,0-2.4,3.4-2.4,5.6c0,1.8,0.1,5.6,2.4,5.6C94.5,75,94.7,71.2,94.7,69.4"/>
	<path d="M103,68.9c-0.1-0.4-0.5-1.8-0.8-3.5h-0.1c0,3,0,3.9,0,4.5l-0.2,6.5c0,0.3,0,0.5-0.4,0.5h-1.8c-0.2,0-0.4-0.1-0.4-0.5   l0.6-14.3c0-0.4,0.1-0.5,0.4-0.5h2.3c0.2,0,0.3,0,0.4,0.4l1.8,5.6c0.2,0.8,0.6,2.2,0.7,2.7h0c0.1-1,0.4-1.7,0.7-2.7l1.9-5.6   c0.1-0.2,0.1-0.4,0.4-0.4h2.3c0.3,0,0.4,0,0.5,0.7l0.6,14c0,0.4-0.2,0.5-0.3,0.5h-2.2c-0.3,0-0.3-0.2-0.3-0.5l-0.2-7.5   c0-0.5,0-0.6,0-1.3v-0.5v-1.8h-0.1c-0.2,1.4-0.4,2.4-0.8,3.5l-1.4,4.3c-0.1,0.2-0.1,0.4-0.4,0.4h-1.6c-0.4,0-0.3-0.2-0.4-0.4   L103,68.9z"/>
	<path d="M22.6,76.3c-0.1-0.3-1.1-4.4-1.3-5c-0.2-0.6-0.5-1.8-2-2.3V69c1.1-0.4,1.5-1.1,1.7-2c0.2-1,0.9-3.8,1.1-4.8   c0.1-0.2,0-0.4-0.4-0.4h-2.4c-0.1,0-0.2,0.1-0.2,0.2c0,0.1-0.4,2.9-0.6,4.3c-0.2,1.3-0.8,1.7-1.9,1.7H16v-5.7   c0-0.4-0.2-0.4-0.4-0.4h-2.1c-0.2,0-0.4,0-0.4,0.4v14.3c0,0.4,0.2,0.4,0.4,0.4h2.1c0.2,0,0.4,0,0.4-0.4v-6.3h1   c1.4,0,1.6,0.9,1.7,1.5c0.1,0.6,0.7,4.5,0.8,4.7c0.1,0.4,0.2,0.5,0.6,0.5h2.1C22.5,77,22.7,76.7,22.6,76.3"/>
	<path d="M86.2,76.3c-0.1-0.3-1.1-4.4-1.3-5c-0.2-0.6-0.5-1.8-2-2.3V69c1.1-0.4,1.5-1.1,1.7-2c0.2-1,0.9-3.8,1.2-4.8   c0.1-0.2,0-0.4-0.4-0.4H83c-0.1,0-0.2,0.1-0.2,0.2c0,0.1-0.4,2.9-0.6,4.3c-0.2,1.3-0.8,1.7-1.9,1.7h-0.8v-5.7   c0-0.4-0.2-0.4-0.4-0.4H77c-0.2,0-0.4,0-0.4,0.4v14.3c0,0.4,0.2,0.4,0.4,0.4h2.1c0.2,0,0.4,0,0.4-0.4v-6.3h1c1.4,0,1.6,0.9,1.7,1.5   c0.1,0.6,0.7,4.5,0.8,4.7c0.1,0.4,0.3,0.5,0.6,0.5h2.1C86,77,86.2,76.7,86.2,76.3"/>
	<path d="M64.3,61.8h-4.8c-0.8,0-1.3,0.3-1.5,1.1c-0.2,0.8-3.2,13.1-3.2,13.4c-0.1,0.3,0.1,0.7,0.5,0.7h2.1c0.3,0,0.5-0.1,0.6-0.5   c0-0.2,2.3-12.1,2.3-12.1h1.3v12.1c0,0.2,0,0.4,0.5,0.4h2.1c0.2,0,0.4,0,0.4-0.4V62.2C64.7,61.8,64.5,61.8,64.3,61.8"/>
</g>
</svg>