<svg width="36" height="28" viewBox="0 0 36 28" fill="none" xmlns="http://www.w3.org/2000/svg">
<path d="M32.7656 0.875H3.23438C1.96585 0.875 0.9375 1.90335 0.9375 3.17188V24.8281C0.9375 26.0967 1.96585 27.125 3.23438 27.125H32.7656C34.0342 27.125 35.0625 26.0967 35.0625 24.8281V3.17188C35.0625 1.90335 34.0342 0.875 32.7656 0.875Z" stroke="white" stroke-width="1.5" stroke-linejoin="round"/>
<path d="M32.7656 20.5625H30.7969C29.5283 20.5625 28.5 21.5908 28.5 22.8594V24.8281C28.5 26.0967 29.5283 27.125 30.7969 27.125H32.7656C34.0342 27.125 35.0625 26.0967 35.0625 24.8281V22.8594C35.0625 21.5908 34.0342 20.5625 32.7656 20.5625Z" stroke="white" stroke-width="1.5" stroke-linejoin="round"/>
<path d="M32.7656 14H30.7969C29.5283 14 28.5 15.0283 28.5 16.2969V18.2656C28.5 19.5342 29.5283 20.5625 30.7969 20.5625H32.7656C34.0342 20.5625 35.0625 19.5342 35.0625 18.2656V16.2969C35.0625 15.0283 34.0342 14 32.7656 14Z" stroke="white" stroke-width="1.5" stroke-linejoin="round"/>
<path d="M32.7656 7.4375H30.7969C29.5283 7.4375 28.5 8.46585 28.5 9.73438V11.7031C28.5 12.9717 29.5283 14 30.7969 14H32.7656C34.0342 14 35.0625 12.9717 35.0625 11.7031V9.73438C35.0625 8.46585 34.0342 7.4375 32.7656 7.4375Z" stroke="white" stroke-width="1.5" stroke-linejoin="round"/>
<path d="M32.7656 0.875H30.7969C29.5283 0.875 28.5 1.90335 28.5 3.17188V5.14062C28.5 6.40915 29.5283 7.4375 30.7969 7.4375H32.7656C34.0342 7.4375 35.0625 6.40915 35.0625 5.14062V3.17188C35.0625 1.90335 34.0342 0.875 32.7656 0.875Z" stroke="white" stroke-width="1.5" stroke-linejoin="round"/>
<path d="M5.20312 20.5625H3.23438C1.96585 20.5625 0.9375 21.5908 0.9375 22.8594V24.8281C0.9375 26.0967 1.96585 27.125 3.23438 27.125H5.20312C6.47165 27.125 7.5 26.0967 7.5 24.8281V22.8594C7.5 21.5908 6.47165 20.5625 5.20312 20.5625Z" stroke="white" stroke-width="1.5" stroke-linejoin="round"/>
<path d="M5.20312 14H3.23438C1.96585 14 0.9375 15.0283 0.9375 16.2969V18.2656C0.9375 19.5342 1.96585 20.5625 3.23438 20.5625H5.20312C6.47165 20.5625 7.5 19.5342 7.5 18.2656V16.2969C7.5 15.0283 6.47165 14 5.20312 14Z" stroke="white" stroke-width="1.5" stroke-linejoin="round"/>
<path d="M5.20312 7.4375H3.23438C1.96585 7.4375 0.9375 8.46585 0.9375 9.73438V11.7031C0.9375 12.9717 1.96585 14 3.23438 14H5.20312C6.47165 14 7.5 12.9717 7.5 11.7031V9.73438C7.5 8.46585 6.47165 7.4375 5.20312 7.4375Z" stroke="white" stroke-width="1.5" stroke-linejoin="round"/>
<path d="M5.20312 0.875H3.23438C1.96585 0.875 0.9375 1.90335 0.9375 3.17188V5.14062C0.9375 6.40915 1.96585 7.4375 3.23438 7.4375H5.20312C6.47165 7.4375 7.5 6.40915 7.5 5.14062V3.17188C7.5 1.90335 6.47165 0.875 5.20312 0.875Z" stroke="white" stroke-width="1.5" stroke-linejoin="round"/>
<path d="M26.2031 0.875H9.79688C8.52835 0.875 7.5 1.90335 7.5 3.17188V11.7031C7.5 12.9717 8.52835 14 9.79688 14H26.2031C27.4717 14 28.5 12.9717 28.5 11.7031V3.17188C28.5 1.90335 27.4717 0.875 26.2031 0.875Z" stroke="white" stroke-width="1.5" stroke-linejoin="round"/>
<path d="M26.2031 14H9.79688C8.52835 14 7.5 15.0283 7.5 16.2969V24.8281C7.5 26.0967 8.52835 27.125 9.79688 27.125H26.2031C27.4717 27.125 28.5 26.0967 28.5 24.8281V16.2969C28.5 15.0283 27.4717 14 26.2031 14Z" stroke="white" stroke-width="1.5" stroke-linejoin="round"/>
</svg>
