<svg width="41" height="38" viewBox="0 0 41 38" fill="none" xmlns="http://www.w3.org/2000/svg">
<g clip-path="url(#clip0_311_214)">
<path opacity="0.3" d="M14.6296 32.7876V36.0886H26.8745V32.7876" stroke="#F8F8F8" stroke-width="2" stroke-linecap="square"/>
<path opacity="0.3" d="M18.7111 34.4069V32.7251" stroke="#F8F8F8" stroke-width="2" stroke-linecap="square"/>
<path opacity="0.3" d="M22.793 34.4069V32.7251" stroke="#F8F8F8" stroke-width="2" stroke-linecap="square"/>
<path opacity="0.2" fill-rule="evenodd" clip-rule="evenodd" d="M2.52316 13.5427C1.62645 15.8819 1.16026 18.3848 1.16026 20.9523C1.16026 24.6395 2.12272 28.1846 3.91855 31.2834L6.02133 29.9902C4.45053 27.2798 3.60924 24.181 3.60924 20.9523C3.60924 18.7033 4.0169 16.5146 4.80097 14.4693L2.52316 13.5427Z" fill="#F8F8F8"/>
<path fill-rule="evenodd" clip-rule="evenodd" d="M37.5746 31.3025C39.3775 28.1993 40.344 24.6473 40.344 20.9524C40.344 18.3261 39.8561 15.7675 38.9191 13.3832L36.6491 14.3298C37.4684 16.4147 37.895 18.6519 37.895 20.9524C37.895 24.1878 37.0502 27.2926 35.4732 30.007L37.5746 31.3025Z" fill="#FDFDFD"/>
<path opacity="0.7" fill-rule="evenodd" clip-rule="evenodd" d="M38.0071 11.3859C34.8245 5.30639 28.8199 1.26778 22.0419 0.813599L21.8829 3.33101C27.8118 3.72829 33.0659 7.26218 35.8516 12.5833L38.0071 11.3859Z" fill="#F8F8F8"/>
<path opacity="0.4" fill-rule="evenodd" clip-rule="evenodd" d="M19.4656 0.813354C12.7105 1.26489 6.7222 5.2766 3.52985 11.3238L5.68129 12.529C8.47545 7.23608 13.7153 3.72575 19.6242 3.33079L19.4656 0.813354Z" fill="#F8F8F8"/>
<path fill-rule="evenodd" clip-rule="evenodd" d="M21 25.7385C22.1046 25.7385 23 24.7719 23 23.5794C23 22.7845 22.3333 17.4587 21 7.60217C19.6667 17.4587 19 22.7845 19 23.5794C19 24.7719 19.8954 25.7385 21 25.7385Z" fill="#F8F8F8"/>
</g>
<defs>
<clipPath id="clip0_311_214">
<rect width="40" height="37" fill="white" transform="translate(0.752106 0.349976)"/>
</clipPath>
</defs>
</svg>
