<svg width="41" height="27" viewBox="0 0 41 27" fill="none" xmlns="http://www.w3.org/2000/svg">
<g clip-path="url(#clip0_240:74)">
<path d="M3.08041 21.3608C2.83426 21.3608 2.63382 21.1712 2.63382 20.9386V2.34303C2.63382 2.11049 2.83433 1.92102 3.08041 1.92102H33.3659C33.6121 1.92102 33.8125 2.11049 33.8125 2.34303V5.82919C34.6198 5.82919 35.2078 5.82919 35.8453 5.82919V2.34303C35.8453 1.051 34.7327 0 33.3658 0L3.08041 0C1.71359 0 0.600952 1.05094 0.600952 2.34303V20.9386C0.600952 22.2307 1.71359 23.2817 3.08041 23.2817C15.2377 23.2817 21.7582 23.2817 22.6418 23.2817C22.6418 22.9944 22.6418 22.3541 22.6418 21.3608H3.08041Z" fill="white"/>
<path d="M22.6419 24.6857H12.846V26.6143H22.6419V24.6857Z" fill="white"/>
<path d="M14.4784 11.3954L17.2342 13.6005L21.5133 8.48572" stroke="white" stroke-width="2"/>
<path opacity="0.7" d="M31.1823 25.5452V24.6702C29.5416 24.6702 28.3869 24.6702 27.7184 24.6702C27.0499 24.6702 26.7157 24.2701 26.7157 23.4699V10.2146C26.7157 9.93497 26.9559 9.7075 27.2517 9.7075H37.3583C37.6541 9.7075 37.8942 9.93497 37.8942 10.2146V14.3169H38.6556C39.1211 14.3169 39.5519 14.444 39.927 14.6512V10.2146C39.927 8.87552 38.7747 7.7865 37.3582 7.7865H27.2517C25.8353 7.7865 24.6829 8.87552 24.6829 10.2146V24.4871C24.6829 25.8262 25.8352 26.9152 27.2517 26.9152H31.6409C31.361 26.5353 31.1823 26.006 31.1823 25.5452Z" fill="white"/>
<path opacity="0.4" d="M38.6557 15.5176H33.7255C33.0236 15.5176 32.4529 16.0574 32.4529 16.7205V25.5452C32.4529 26.2083 33.0236 26.7477 33.7255 26.7477H38.6557C39.3575 26.7477 39.9282 26.2083 39.9282 25.5452V16.7205C39.9282 16.0573 39.3574 15.5176 38.6557 15.5176ZM33.9775 16.9583H38.4035V24.5866H33.9775V16.9583ZM36.1911 26.1633C36.0511 26.1633 35.9261 26.1098 35.8308 26.0273C35.7225 25.9344 35.6531 25.804 35.6531 25.6553C35.6531 25.3749 35.8933 25.1479 36.1911 25.1479C36.4869 25.1479 36.7271 25.3749 36.7271 25.6553C36.7271 25.804 36.6576 25.9344 36.5504 26.0273C36.455 26.1099 36.33 26.1633 36.1911 26.1633Z" fill="white"/>
</g>
<defs>
<clipPath id="clip0_240:74">
<rect width="40" height="27" fill="white" transform="translate(0.600952)"/>
</clipPath>
</defs>
</svg>
